<svg width="58" height="92" viewBox="0 0 58 92" fill="none" xmlns="http://www.w3.org/2000/svg">
<path d="M3.84756 30.0698H27.0724L27.1447 30.2145V91.3514L26.8553 91.2067L26.2041 90.3385L25.1912 89.0362L24.4677 88.0956L22.4419 85.491L20.2713 82.6692L19.4031 81.5116L19.3308 61.3256L12.6744 54.6692L12.0956 54.1628L11.6615 53.801L11.5892 53.9457V71.2377L11.2998 71.093L9.85273 69.2119L8.83981 67.9096L7.97159 66.7519L7.10337 65.6667L6.37986 64.7261L5.51164 63.5685L4.64342 62.4832L3.84756 61.3979L3.77521 61.2532V30.1421L3.84756 30.0698ZM11.5168 37.8114V42.3695L11.6615 42.7313L18.1731 49.2429L18.6796 49.677L19.1137 50.1835L19.4031 50.2558V37.8114H11.5168Z" fill="#FEFEFE"/>
<path d="M30.6899 30.0698H38.2868L38.3592 30.1421V50.3282L38.938 49.8217L46.1008 42.6589L46.1731 42.4419L46.2455 30.1421L46.3178 30.0698H53.8424L53.9147 30.1421V61.3979L53.2636 62.2661L52.323 63.4961L50.2972 66.1008L48.8501 67.9819L48.0543 68.9948L46.6072 70.876L45.5943 72.1783L44.6538 73.4083L43.6408 74.7106L42.9173 75.6512L42.1215 76.6641L41.3979 77.6046L40.4574 78.8346L39.4445 80.137L38.7209 81.0775L37.708 82.3798L36.9845 83.3204L36.1886 84.3333L35.5375 85.2015L34.7416 86.2145L33.7287 87.5168L32.8605 88.6744L31.9923 89.7597L31.124 90.9173L30.7623 91.4238L30.6176 91.3514V83.6822L30.6899 78.6899L31.6305 77.5323L32.4987 76.3747L33.5116 75.0723L34.2352 74.1318L35.2481 72.8295L36.3333 71.3824L36.9845 70.5866L38.4315 68.7054L39.2274 67.6925L39.8786 66.8243L40.8915 65.522L41.615 64.5814L42.4109 63.5685L43.1344 62.6279L43.9302 61.615L44.9432 60.3127L46.0284 58.8656L46.1731 58.5762L46.2455 53.7287L45.6667 54.1628L33.2222 66.6072L33.1499 66.7519H33.0052L32.4987 66.1731L30.6899 64.3643L30.6176 64.0749V30.7209L30.6899 30.0698Z" fill="#FEFEFE"/>
<path d="M28.5917 0.405701H29.46L30.1835 0.695106L30.8346 1.12921L31.2687 1.70803L31.5582 2.43154V3.0827L31.2687 3.80622L30.8346 4.31268L30.0388 4.81914L29.3876 4.96384L29.5323 6.19381L30.0388 8.36436L30.9793 11.4755L31.5582 12.9225L32.354 14.5142L32.9328 15.3824L33.584 16.1783L34.2352 16.7571L35.1034 17.1912L35.8269 17.2636L37.0569 16.9742L38.5762 16.1783L39.5892 15.4548L40.5297 14.6589L41.3979 13.8631L42.2662 12.9948L42.9173 12.199L43.7132 11.1861L44.292 10.2455L44.9432 9.01552L44.8708 8.65376L44.292 8.1473L43.8579 7.56849L43.7132 6.98968L43.9302 6.26617L44.292 5.68735L44.7985 5.25325L45.3049 5.03619L45.6667 4.96384H46.3178L46.969 5.10854L47.6925 5.54265L48.1266 6.04911L48.3437 6.55557V7.27909L47.9096 8.1473L47.4031 8.58141L46.7519 8.87082L45.522 8.94317L45.3049 9.73903L45.0155 10.8967L44.6538 12.7778L44.5091 13.7184L44.4367 14.6589V16.1783L44.5814 17.1189L44.9432 18.0594L45.4496 18.783L45.522 19L45.8114 19.1447L46.6796 19.6512L47.1861 19.7235H48.3437L49.1395 19.4341L50.2972 18.8553L51.3101 18.2041L52.106 17.553L53.1912 16.6124L54.2041 15.5995L54.5659 15.1654L54.4935 14.876L54.1318 14.2972L54.0594 14.0801V13.429L54.3488 12.8501L54.783 12.4884L55.5788 12.199L56.3023 12.2713L56.8811 12.5607L57.3153 13.1396L57.46 13.7907L57.3153 14.3695L57.0258 14.8036L56.6641 15.093L56.3023 15.2377H55.0724L54.7106 15.5271L54.2041 16.106L53.553 16.8295L52.7571 17.8424L52.1783 18.5659L51.2377 19.9406L50.7313 20.6641L49.9354 21.8941L48.9948 23.5582L48.416 24.6434L47.6202 26.4522L47.5478 26.5246H10.2868L9.41862 24.7158L8.5504 22.9793L7.68218 21.5323L6.1628 19.2894L5.00518 17.77L4.42637 17.0465L3.77521 16.323L3.12404 15.5271L2.90699 15.3101L1.45996 15.2377L0.808798 14.8036L0.519392 14.4419L0.302338 13.8631L0.44704 13.2119L0.736446 12.7778L1.24291 12.416L1.60466 12.2713H2.54523L3.26875 12.6331L3.6305 13.0672L3.84756 13.5737L3.77521 14.1525L3.3411 14.876L3.41345 15.2377L4.28167 16.1783L5.43929 17.3359L6.23515 17.9871L7.24807 18.7106L8.33335 19.2894L9.20156 19.6512L9.63567 19.7235H11.1551L11.8062 19.4341L12.385 19L12.8191 18.4212L13.1809 17.553L13.3256 16.106V13.8631L13.1085 12.1266L12.6021 9.81139L12.2403 8.94317L11.0827 8.87082L10.4315 8.58141L9.85273 8.07495L9.56332 7.42379L9.49097 6.77263L9.70802 6.04911L10.2145 5.4703L11.0827 5.03619L11.4445 4.96384H12.2403L13.0362 5.25325L13.615 5.75971L13.9768 6.33852L14.0491 6.55557V7.42379L13.615 8.1473L12.9638 8.65376L12.8191 8.72611L12.9638 9.08787L14.2662 11.0414L16.292 13.7907L17.0879 14.8036L17.3773 15.1654L18.7519 16.1783L19.4755 16.6848L20.2713 17.0465L21.2842 17.2636L22.2248 17.1912L23.093 16.9742L24.0336 16.3954L24.5401 15.9613L25.2636 15.0207L25.9147 13.8631L26.4936 12.4884L27.2171 10.3178L27.6512 8.94317L28.23 6.62792L28.447 5.39795L28.3747 5.03619L27.5065 4.67443L26.9277 4.24033L26.4936 3.58916L26.3488 3.15505V2.28684L26.6383 1.63567L27.0724 1.05686L27.7959 0.622755L28.5917 0.405701Z" fill="#FEFEFE"/>
</svg>
